# xmcd
#
# Track frame offsets:
#	150
#	18038
#	37933
#	53959
#	76313
#	94639
#	112815
#	130612
#	151584
#	172035
#	191278
#	206774
#	230979
#	250661
#	274399
#	306109
#	323953
#
# Disc length: 4463 seconds
#
# Revision: 1
# Processed by: cddbd v1.5.2PL0 Copyright (c) Steve Scherf et al.
# Submitted via: dBpowerAMP V4.0
#
DISCID=d5116d11
DTITLE=Sinik - Sang Froid
DYEAR=2006
DGENRE=Rap
TTITLE0=Dans le Vif
TTITLE1=Autodestruction
TTITLE2=Sarkozic
TTITLE3=Descente Aux Enfers
TTITLE4=Un Monde Meilleur FeaT. Tunisi
TTITLE5=Mon Pire Ennemi
TTITLE6=Ne Dis Jamais FeaT. Vitaa
TTITLE7=Precieuse
TTITLE8=Rien N'a Change FeaT. Kayna Sa
TTITLE9=Bonhomme
TTITLE10=Il Faut Toujours un Drame
TTITLE11=La Cite Des Anges
TTITLE12=Si Proche Des Miens FeaT. Kool
TTITLE13=Demence
TTITLE14=Zone Interdite
TTITLE15=Mon Pire Ennemi (Remix)
TTITLE16=Le Mot de la Fin
EXTD=
EXTT0=
EXTT1=
EXTT2=
EXTT3=
EXTT4=
EXTT5=
EXTT6=
EXTT7=
EXTT8=
EXTT9=
EXTT10=
EXTT11=
EXTT12=
EXTT13=
EXTT14=
EXTT15=
EXTT16=
PLAYORDER=
